<svg width="430" height="430" viewBox="0 0 430 430" fill="none" xmlns="http://www.w3.org/2000/svg">
<mask id="mask0_2164_3981" style="mask-type:alpha" maskUnits="userSpaceOnUse" x="20" y="57" width="330" height="268">
<path d="M350 57.5134H20V325H182.407C165.349 304.353 155.1 277.874 155.1 249C155.1 183.057 208.557 129.6 274.5 129.6C303.141 129.6 329.427 139.684 350 156.496V57.5134Z" fill="#D9D9D9"/>
</mask>
<g mask="url(#mask0_2164_3981)">
<rect x="88" y="81" width="237" height="56" rx="28" stroke="#e8e230" stroke-width="12" stroke-linejoin="round"/>
<rect x="34" y="137" width="237" height="56" rx="28" stroke="#e8e230" stroke-width="12" stroke-linejoin="round"/>
<rect x="87" y="193" width="237" height="56" rx="28" stroke="#e8e230" stroke-width="12" stroke-linejoin="round"/>
<rect x="62" y="249" width="237" height="56" rx="28" stroke="#e8e230" stroke-width="12" stroke-linejoin="round"/>
</g>
<path d="M274.5 368.4C340.443 368.4 393.9 314.943 393.9 249C393.9 183.057 340.443 129.6 274.5 129.6C208.557 129.6 155.1 183.057 155.1 249C155.1 314.943 208.557 368.4 274.5 368.4Z" stroke="#e8e230" stroke-width="12" stroke-miterlimit="10" stroke-linecap="round" stroke-linejoin="round"/>
<path d="M274.5 333.2C321.002 333.2 358.7 295.502 358.7 249C358.7 202.498 321.002 164.8 274.5 164.8C227.998 164.8 190.3 202.498 190.3 249C190.3 295.502 227.998 333.2 274.5 333.2Z" stroke="#e8e230" stroke-width="12" stroke-miterlimit="10" stroke-linecap="round" stroke-linejoin="round"/>
</svg>
