<svg width="430" height="430" viewBox="0 0 430 430" fill="none" xmlns="http://www.w3.org/2000/svg">
<path d="M221.12 181.44V219.78" stroke="#7166ee" stroke-width="12" stroke-miterlimit="10" stroke-linecap="round" stroke-linejoin="round"/>
<path d="M246.49 242.63V280.12H195.75V242.63L204.64 219.78H237.59L246.49 242.63Z" stroke="#7166ee" stroke-width="12" stroke-miterlimit="10" stroke-linecap="round" stroke-linejoin="round"/>
<path d="M290.1 181.11V321.18C290.1 343.36 271.28 361.5 248.29 361.5H149.51C126.52 361.5 107.7 343.36 107.7 321.18V181.11H290.1Z" stroke="#545454" stroke-width="12" stroke-miterlimit="10" stroke-linecap="round" stroke-linejoin="round"/>
<path d="M290.1 181.11H319.18C341.19 181.11 359.21 198.49 359.21 219.71V232.7C359.21 253.93 341.19 271.3 319.18 271.3H290.1" stroke="#545454" stroke-width="12" stroke-miterlimit="10" stroke-linecap="round" stroke-linejoin="round"/>
<path d="M336.87 361.23H70" stroke="#545454" stroke-width="12" stroke-miterlimit="10" stroke-linecap="round" stroke-linejoin="round"/>
<path d="M163.81 69C163.81 79.78 157.81 79.78 157.81 90.55C157.81 101.33 163.81 101.33 163.81 112.11C163.81 122.89 157.81 122.89 157.81 133.67" stroke="#7166ee" stroke-width="12" stroke-miterlimit="10" stroke-linecap="round" stroke-linejoin="round"/>
<path d="M207.43 69C207.43 79.78 201.43 79.78 201.43 90.55C201.43 101.33 207.43 101.33 207.43 112.11C207.43 122.89 201.43 122.89 201.43 133.67" stroke="#7166ee" stroke-width="12" stroke-miterlimit="10" stroke-linecap="round" stroke-linejoin="round"/>
<path d="M251.05 69C251.05 79.78 245.05 79.78 245.05 90.55C245.05 101.33 251.05 101.33 251.05 112.11C251.05 122.89 245.05 122.89 245.05 133.67" stroke="#7166ee" stroke-width="12" stroke-miterlimit="10" stroke-linecap="round" stroke-linejoin="round"/>
</svg>
